<svg width="60" height="61" viewBox="0 0 60 61" fill="none" xmlns="http://www.w3.org/2000/svg">
<rect x="3.75" y="4.71582" width="52.5" height="52.5" rx="26.25" fill="#1275B1"/>
<path d="M23.6598 19.1386C23.6598 20.8909 22.141 22.3114 20.2674 22.3114C18.3938 22.3114 16.875 20.8909 16.875 19.1386C16.875 17.3863 18.3938 15.9658 20.2674 15.9658C22.141 15.9658 23.6598 17.3863 23.6598 19.1386Z" fill="white"/>
<path d="M17.3389 24.6435H23.1379V42.2158H17.3389V24.6435Z" fill="white"/>
<path d="M32.4742 24.6435H26.6753V42.2158H32.4742C32.4742 42.2158 32.4742 36.6838 32.4742 33.2249C32.4742 31.1489 33.1831 29.0637 36.0116 29.0637C39.2082 29.0637 39.1889 31.7806 39.174 33.8854C39.1545 36.6366 39.201 39.4443 39.201 42.2158H45V32.9415C44.9509 27.0197 43.4078 24.291 38.3312 24.291C35.3164 24.291 33.4476 25.6597 32.4742 26.898V24.6435Z" fill="white"/>
</svg>
