<svg width="60" height="61" viewBox="0 0 60 61" fill="none" xmlns="http://www.w3.org/2000/svg">
<ellipse cx="19.6875" cy="19.7158" rx="15.9375" ry="15" fill="#184AA9"/>
<circle cx="41.25" cy="42.2158" r="15" fill="#2173F0"/>
<circle cx="30" cy="30.9658" r="24.375" fill="url(#paint0_linear_800_443)"/>
<path d="M30.1289 17.8408C34.0915 17.8408 39.375 19.7158 38.0541 22.2158C36.2488 25.6328 32.7707 22.2158 30.1289 22.2158C27.4872 22.2158 26.1663 23.4658 26.1663 24.7158C26.1663 25.9658 26.8268 27.2158 30.1289 28.4658C33.4311 29.7158 39.375 31.5908 39.375 36.5908C39.375 41.5908 34.752 44.0908 28.8081 44.0908C23.4835 44.0908 19.562 41.5908 20.8829 39.0908C22.4019 36.2158 26.1663 39.7158 28.8081 39.7158C31.4498 39.7158 34.0915 39.0908 34.0915 36.5908C34.0915 34.0908 30.1289 33.4658 27.4872 32.2158C24.1849 30.6533 20.8828 29.0908 20.8828 24.7158C20.8828 20.3408 26.1663 17.8408 30.1289 17.8408Z" fill="white"/>
<defs>
<linearGradient id="paint0_linear_800_443" x1="11.0417" y1="16.07" x2="47.6042" y2="46.5387" gradientUnits="userSpaceOnUse">
<stop stop-color="#297AC0"/>
<stop offset="1" stop-color="#48B0F9"/>
</linearGradient>
</defs>
</svg>
