<svg width="99" height="28" viewBox="0 0 99 28" fill="none" xmlns="http://www.w3.org/2000/svg">
<g clip-path="url(#clip0_47_52094)">
<path fill-rule="evenodd" clip-rule="evenodd" d="M63.0239 4.77056C63.0239 6.30069 61.7841 7.54111 60.2548 7.54111C58.7255 7.54111 57.4857 6.30069 57.4857 4.77056C57.4857 3.24042 58.7255 2 60.2548 2C61.7841 2 63.0239 3.24042 63.0239 4.77056ZM55.8503 12.9791V9.01233H55.8434H52.3253V8.71672C52.3047 6.53052 53.5897 6.50989 55.5893 6.50989H55.8434V2.57061H54.7235C52.4284 2.57061 47.8864 2.92123 47.8864 8.24236V9.01233H45.667V12.9791H47.8864V23.8413H52.3321V12.9791H55.8503ZM36.6587 23.8001C37.4214 23.6007 38.1635 23.2158 38.8713 22.6314L39.0773 23.8414H43.3858V9.01922H39.1048L38.8713 10.2292C38.301 9.69983 37.6619 9.32171 36.9403 9.08797C36.2258 8.85422 35.4906 8.73735 34.7415 8.73735C33.4429 8.73735 32.3297 8.92297 31.4021 9.30109C30.4744 9.67233 29.691 10.2017 29.0383 10.8892C28.3924 11.5767 27.8908 12.3879 27.5336 13.3366C27.1831 14.2853 27.0044 15.3166 27.0044 16.444C27.0044 17.5165 27.1625 18.5064 27.4648 19.4278C27.7671 20.349 28.207 21.1602 28.7909 21.8614C29.3682 22.5626 30.1378 23.1127 31.0792 23.5044C32.0206 23.8963 33.0924 24.0957 34.295 24.0957C35.1058 24.0957 35.8891 23.9994 36.6587 23.8001ZM36.7274 19.792C36.2876 19.9984 35.7791 20.1015 35.2087 20.1015V20.1083C34.6179 20.1083 34.0956 20.0052 33.6421 19.799C33.1887 19.5927 32.8176 19.3177 32.5359 18.9809C32.2473 18.644 32.0274 18.2521 31.883 17.8121C31.7388 17.3721 31.6631 16.8977 31.6631 16.389C31.6631 15.9215 31.7319 15.4747 31.8693 15.0416C32.0068 14.6084 32.2266 14.2235 32.5221 13.8866C32.8176 13.5497 33.1887 13.2816 33.6421 13.096C34.0956 12.9104 34.6179 12.8141 35.2087 12.8141C36.37 12.8141 37.2358 13.1579 37.8199 13.8522C38.4039 14.5466 38.6926 15.3991 38.6926 16.4097C38.6926 16.9184 38.6169 17.3927 38.4727 17.8327C38.3215 18.2728 38.1086 18.6577 37.8199 18.9878C37.5313 19.3177 37.1672 19.5858 36.7274 19.792ZM62.4606 23.8413H58.0422V9.01233H62.4606V23.8413ZM70.3617 10.6352C71.0129 9.9237 71.7255 9.43086 72.4928 9.14984C73.2623 8.86797 74.0044 8.71671 74.7122 8.70297C75.6467 8.70297 76.4713 8.8611 77.172 9.17046C77.8729 9.47983 78.4707 9.90606 78.9587 10.4492C79.5016 11.1092 79.8795 11.8723 80.0855 12.7591C80.2917 13.6391 80.3948 14.6153 80.3948 15.6878V23.8482H75.949V16.0522C75.949 15.6397 75.9078 15.2341 75.839 14.8422C75.7634 14.4503 75.626 14.0928 75.42 13.7766C75.2138 13.4604 74.9321 13.206 74.5747 13.0341C74.2174 12.8554 73.7777 12.766 73.2555 12.766C72.7332 12.766 72.2728 12.8829 71.8744 13.1166C71.4826 13.3504 71.1803 13.6391 70.9741 13.9897C70.7681 14.3403 70.6237 14.7185 70.5412 15.1309C70.4588 15.5434 70.4176 15.9559 70.4176 16.3684V23.8552H65.9994V9.01234H70.1358L70.3617 10.6352ZM94.0756 22.6314C93.3679 23.2158 92.6258 23.6007 91.863 23.8001C91.0935 23.9994 90.3101 24.0957 89.4993 24.0957C88.2969 24.0957 87.2249 23.8963 86.2835 23.5044C85.3421 23.1127 84.5726 22.5626 83.9954 21.8614C83.4113 21.1602 82.9716 20.349 82.6693 19.4278C82.3668 18.5064 82.2089 17.5165 82.2089 16.444C82.2089 15.3166 82.3874 14.2853 82.7379 13.3366C83.0952 12.3879 83.5968 11.5767 84.2428 10.8892C84.8955 10.2017 85.6789 9.67233 86.6065 9.30109C87.5341 8.92297 88.6473 8.73735 89.946 8.73735C90.6949 8.73735 91.4301 8.85422 92.1448 9.08797C92.8664 9.32171 93.5053 9.69983 94.0756 10.2292L94.3093 9.01922H98.5901V23.8414H94.2818L94.0756 22.6314ZM90.4132 20.1015C90.9835 20.1015 91.492 19.9984 91.9318 19.792C92.3715 19.5858 92.7358 19.3177 93.0243 18.9878C93.3129 18.6577 93.5259 18.2728 93.677 17.8327C93.8214 17.3927 93.897 16.9184 93.897 16.4097C93.897 15.3991 93.6084 14.5466 93.0243 13.8522C92.4403 13.1579 91.5745 12.8141 90.4132 12.8141C89.8223 12.8141 89.3001 12.9104 88.8466 13.096C88.393 13.2816 88.0219 13.5497 87.7264 13.8866C87.4311 14.2235 87.2111 14.6084 87.0737 15.0416C86.9363 15.4747 86.8676 15.9215 86.8676 16.389C86.8676 16.8977 86.9432 17.3721 87.0875 17.8121C87.2317 18.2521 87.4516 18.644 87.7402 18.9809C88.0219 19.3177 88.393 19.5927 88.8466 19.799C89.3001 20.0052 89.8223 20.1083 90.4132 20.1083V20.1015Z" fill="black"/>
<path d="M10.1146 26C15.7008 26 20.2293 21.4692 20.2293 15.8803C20.2293 10.2913 15.7008 5.76051 10.1146 5.76051C4.52847 5.76051 3.8147e-06 10.2913 3.8147e-06 15.8803C3.8147e-06 21.4692 4.52847 26 10.1146 26Z" fill="#FFEC00"/>
</g>
<defs>
<clipPath id="clip0_47_52094">
<rect width="98.5901" height="28" fill="white"/>
</clipPath>
</defs>
</svg>
