<svg width="60" height="61" viewBox="0 0 60 61" fill="none" xmlns="http://www.w3.org/2000/svg">
<path fill-rule="evenodd" clip-rule="evenodd" d="M30 59.0908C44.4975 59.0908 56.25 47.3383 56.25 32.8408C56.25 18.3433 44.4975 6.59082 30 6.59082C15.5025 6.59082 3.75 18.3433 3.75 32.8408C3.75 37.5487 4.98937 41.9671 7.15964 45.7876L3.75 59.0908L17.4654 55.9104C21.1901 57.9385 25.4605 59.0908 30 59.0908ZM30 55.0524C42.2671 55.0524 52.2115 45.1079 52.2115 32.8408C52.2115 20.5737 42.2671 10.6293 30 10.6293C17.7329 10.6293 7.78846 20.5737 7.78846 32.8408C7.78846 37.5772 9.27094 41.9673 11.7972 45.5725L9.80769 53.0331L17.3999 51.1351C20.9801 53.6056 25.3211 55.0524 30 55.0524Z" fill="#BFC8D0"/>
<path d="M52.5 30.9658C52.5 43.3922 42.4264 53.4658 30 53.4658C25.2603 53.4658 20.8629 52.0003 17.2362 49.4977L9.54545 51.4204L11.5608 43.8628C9.00173 40.2108 7.5 35.7637 7.5 30.9658C7.5 18.5394 17.5736 8.46582 30 8.46582C42.4264 8.46582 52.5 18.5394 52.5 30.9658Z" fill="url(#paint0_linear_800_424)"/>
<path fill-rule="evenodd" clip-rule="evenodd" d="M30 57.2158C44.4975 57.2158 56.25 45.4633 56.25 30.9658C56.25 16.4683 44.4975 4.71582 30 4.71582C15.5025 4.71582 3.75 16.4683 3.75 30.9658C3.75 35.6737 4.98937 40.0921 7.15964 43.9126L3.75 57.2158L17.4654 54.0354C21.1901 56.0635 25.4605 57.2158 30 57.2158ZM30 53.1774C42.2671 53.1774 52.2115 43.2329 52.2115 30.9658C52.2115 18.6987 42.2671 8.75428 30 8.75428C17.7329 8.75428 7.78846 18.6987 7.78846 30.9658C7.78846 35.7022 9.27094 40.0923 11.7972 43.6975L9.80769 51.1581L17.3999 49.2601C20.9801 51.7306 25.3211 53.1774 30 53.1774Z" fill="white"/>
<path d="M23.4375 18.7784C22.8134 17.5248 21.856 17.6358 20.8888 17.6358C19.1602 17.6358 16.4648 19.7063 16.4648 23.5598C16.4648 26.7179 17.8565 30.1749 22.5458 35.3463C27.0713 40.3372 33.0176 42.9189 37.9541 42.831C42.8906 42.7431 43.9063 38.4951 43.9063 37.0605C43.9063 36.4246 43.5117 36.1074 43.2399 36.0212C41.5576 35.2138 38.455 33.7095 37.749 33.4269C37.0431 33.1442 36.6745 33.5265 36.4453 33.7345C35.8051 34.3446 34.5361 36.1426 34.1016 36.547C33.6671 36.9514 33.0193 36.7467 32.7497 36.5939C31.7577 36.1958 29.068 34.9994 26.924 32.921C24.2725 30.3507 24.1169 29.4664 23.6173 28.6792C23.2177 28.0495 23.5109 27.6631 23.6573 27.4942C24.2286 26.8351 25.0174 25.8174 25.3711 25.3116C25.7249 24.8059 25.4441 24.038 25.2755 23.5598C24.5508 21.503 23.9368 19.7813 23.4375 18.7784Z" fill="white"/>
<defs>
<linearGradient id="paint0_linear_800_424" x1="49.6875" y1="14.0908" x2="7.5" y2="53.4658" gradientUnits="userSpaceOnUse">
<stop stop-color="#5BD066"/>
<stop offset="1" stop-color="#27B43E"/>
</linearGradient>
</defs>
</svg>
