<svg width="1893" height="730" viewBox="0 0 1893 730" fill="none" xmlns="http://www.w3.org/2000/svg">
<g clip-path="url(#clip0_805_2)">
<rect width="1893" height="730" rx="40" fill="#A1C9BC"/>
<path d="M1148.79 413.3C1148.79 384.799 1171.77 361.694 1200.12 361.694C1228.46 361.694 1251.44 384.799 1251.44 413.3C1251.44 441.802 1228.46 464.907 1200.12 464.907C1171.77 464.907 1148.79 441.802 1148.79 413.3Z" fill="#FEE934"/>
<path d="M361 -47.3936C361 -75.895 383.981 -98.9999 412.329 -98.9999C440.677 -98.9999 463.657 -75.895 463.657 -47.3936C463.657 -18.8923 440.677 4.21264 412.329 4.21264C383.981 4.21264 361 -18.8923 361 -47.3936Z" fill="#FEE934"/>
<path d="M1639.94 426.957C1639.94 398.455 1662.92 375.35 1691.27 375.35C1719.62 375.35 1742.6 398.455 1742.6 426.957C1742.6 455.458 1719.62 478.563 1691.27 478.563C1662.92 478.563 1639.94 455.458 1639.94 426.957Z" fill="#FEE934"/>
<path d="M1691.45 463.975C1691.45 435.474 1714.43 412.369 1742.77 412.369C1771.12 412.369 1794.1 435.474 1794.1 463.975C1794.1 492.477 1771.12 515.582 1742.77 515.582C1714.43 515.582 1691.45 492.477 1691.45 463.975Z" fill="#FEE934"/>
<path d="M1475.06 423.28C1475.06 394.779 1498.05 371.674 1526.39 371.674C1554.74 371.674 1577.72 394.779 1577.72 423.28C1577.72 451.781 1554.74 474.886 1526.39 474.886C1498.05 474.886 1475.06 451.781 1475.06 423.28Z" fill="#FEE934"/>
<path d="M1639.94 341.003C1639.94 312.502 1662.92 289.397 1691.27 289.397C1719.62 289.397 1742.6 312.502 1742.6 341.003C1742.6 369.505 1719.62 392.61 1691.27 392.61C1662.92 392.61 1639.94 369.505 1639.94 341.003Z" fill="#FEE934"/>
<path d="M1536.93 320.494C1536.93 291.992 1559.91 268.887 1588.26 268.887C1616.61 268.887 1639.59 291.992 1639.59 320.494C1639.59 348.995 1616.61 372.1 1588.26 372.1C1559.91 372.1 1536.93 348.995 1536.93 320.494Z" fill="#FEE934"/>
<path d="M635.062 308.971C635.062 280.47 658.043 257.365 686.391 257.365C714.739 257.365 737.72 280.47 737.72 308.971C737.72 337.473 714.739 360.578 686.391 360.578C658.043 360.578 635.062 337.473 635.062 308.971Z" fill="#FEE934"/>
<path d="M1594.2 375.453C1594.2 346.951 1617.18 323.847 1645.52 323.847C1673.87 323.847 1696.85 346.951 1696.85 375.453C1696.85 403.954 1673.87 427.059 1645.52 427.059C1617.18 427.059 1594.2 403.954 1594.2 375.453Z" fill="#FEE934"/>
<path d="M1588.44 463.975C1588.44 435.474 1611.42 412.369 1639.77 412.369C1668.11 412.369 1691.09 435.474 1691.09 463.975C1691.09 492.476 1668.11 515.581 1639.77 515.581C1611.42 515.581 1588.44 492.476 1588.44 463.975Z" fill="#FEE934"/>
<path d="M1796.06 360.967C1796.06 332.466 1819.04 309.361 1847.39 309.361C1875.74 309.361 1898.72 332.466 1898.72 360.967C1898.72 389.469 1875.74 412.573 1847.39 412.573C1819.04 412.573 1796.06 389.469 1796.06 360.967Z" fill="#FEE934"/>
<path d="M985 28.6064C985 0.104994 1007.98 -22.9999 1036.33 -22.9999C1064.68 -22.9999 1087.66 0.105003 1087.66 28.6064C1087.66 57.1077 1064.68 80.2126 1036.33 80.2126C1007.98 80.2126 985 57.1077 985 28.6064Z" fill="#FEE934"/>
<path d="M1737.32 541.143C1737.32 512.642 1760.3 489.537 1788.65 489.537C1817 489.537 1839.98 512.642 1839.98 541.143C1839.98 569.645 1817 592.75 1788.65 592.75C1760.3 592.75 1737.32 569.645 1737.32 541.143Z" fill="#FEE934"/>
<path d="M1486.25 592.971C1486.25 564.47 1509.23 541.365 1537.57 541.365C1565.92 541.365 1588.9 564.47 1588.9 592.971C1588.9 621.473 1565.92 644.578 1537.57 644.578C1509.23 644.578 1486.25 621.473 1486.25 592.971Z" fill="#FEE934"/>
<path d="M1615.8 515.479C1615.8 486.978 1638.78 463.873 1667.13 463.873C1695.48 463.873 1718.46 486.978 1718.46 515.479C1718.46 543.981 1695.48 567.085 1667.13 567.085C1638.78 567.085 1615.8 543.981 1615.8 515.479Z" fill="#FEE934"/>
</g>
<defs>
<clipPath id="clip0_805_2">
<rect width="1893" height="730" rx="40" fill="white"/>
</clipPath>
</defs>
</svg>
